<?xml version="1.0"?>
<svg xmlns="http://www.w3.org/2000/svg" version="1.1" width="600px" height="600px" viewBox="0 0 200 200" style="overflow:hidden!important;">
  <defs id="SvgjsDefs1007">
    <radialGradient id="SvgjsRadialGradient2904" cx="100" cy="114" r="41" gradientUnits="userSpaceOnUse" class="svga-on-canvas-facehighlight-gradient-single-0">
      <stop id="SvgjsStop2905" stop-opacity="0.5" stop-color="#ffe4d6" offset="0"/>
      <stop id="SvgjsStop2906" stop-opacity="0" stop-color="#f0c7b1" offset="0.9"/>
    </radialGradient>
    <radialGradient id="SvgjsRadialGradient2908" cx="100" cy="54" r="37" gradientUnits="userSpaceOnUse" class="svga-on-canvas-facehighlight-gradient-single-1">
      <stop id="SvgjsStop2909" stop-opacity="0.5" stop-color="#ffe4d6" offset="0"/>
      <stop id="SvgjsStop2910" stop-opacity="0" stop-color="#f0c7b1" offset="0.9"/>
    </radialGradient>
    <radialGradient id="SvgjsRadialGradient3425" cx="100" cy="100" r="150" gradientUnits="userSpaceOnUse" class="svga-on-canvas-backs-gradient-single-1">
      <stop id="SvgjsStop3426" stop-opacity="0" stop-color="#ecf0f1" offset="0"/>
      <stop id="SvgjsStop3427" stop-opacity="1" stop-color="#c6dce2" offset="0.2"/>
      <stop id="SvgjsStop3428" stop-opacity="0" stop-color="#c6dce2" offset="1"/>
    </radialGradient>
    <radialGradient id="SvgjsRadialGradient4409" cx="129.041" cy="83.945" r="15.117" gradientTransform="matrix(-0.9945 0.1042 0.1042 0.9945 192.8281 -12.4633)" gradientUnits="userSpaceOnUse" class="svga-on-canvas-eyesback-gradient-left-0">
      <stop id="SvgjsStop4410" stop-opacity="1" stop-color="#ffffff" offset="0"/>
      <stop id="SvgjsStop4411" stop-opacity="1" stop-color="#fcfdfd" offset="0.315"/>
      <stop id="SvgjsStop4412" stop-opacity="1" stop-color="#f4f7f8" offset="0.504"/>
      <stop id="SvgjsStop4413" stop-opacity="1" stop-color="#e5ecef" offset="0.66"/>
      <stop id="SvgjsStop4414" stop-opacity="1" stop-color="#d8e2e7" offset="0.76"/>
    </radialGradient>
    <radialGradient id="SvgjsRadialGradient4416" cx="128.643" cy="83.986" r="15.116" gradientTransform="matrix(0.9945 0.1042 -0.1042 0.9945 7.1738 -12.4633)" gradientUnits="userSpaceOnUse" class="svga-on-canvas-eyesback-gradient-right-0">
      <stop id="SvgjsStop4417" stop-opacity="1" stop-color="#ffffff" offset="0"/>
      <stop id="SvgjsStop4418" stop-opacity="1" stop-color="#fcfdfd" offset="0.316"/>
      <stop id="SvgjsStop4419" stop-opacity="1" stop-color="#f4f7f8" offset="0.505"/>
      <stop id="SvgjsStop4420" stop-opacity="1" stop-color="#e5ecef" offset="0.661"/>
      <stop id="SvgjsStop4421" stop-opacity="1" stop-color="#d8e2e7" offset="0.76"/>
    </radialGradient>
    <radialGradient id="SvgjsRadialGradient4423" cx="129.041" cy="83.945" r="15.117" gradientTransform="matrix(-0.9945 0.1042 0.1042 0.9945 192.8281 -12.4633)" gradientUnits="userSpaceOnUse" class="svga-on-canvas-eyesfront-gradient-left-0">
      <stop id="SvgjsStop4424" stop-opacity="1" stop-color="#ffffff" offset="0"/>
      <stop id="SvgjsStop4425" stop-opacity="1" stop-color="#fcfdfd" offset="0.316"/>
      <stop id="SvgjsStop4426" stop-opacity="1" stop-color="#f4f7f8" offset="0.505"/>
      <stop id="SvgjsStop4427" stop-opacity="1" stop-color="#e5ecef" offset="0.661"/>
      <stop id="SvgjsStop4428" stop-opacity="1" stop-color="#d8e2e7" offset="0.76"/>
    </radialGradient>
    <radialGradient id="SvgjsRadialGradient4432" cx="121.986" cy="82.496" fx="133.239" fy="82.527" r="16.003" gradientTransform="matrix(0.9998 0.0208 0.0166 -0.7998 -45.3195 145.9395)" gradientUnits="userSpaceOnUse" class="svga-on-canvas-eyesfront-gradient-left-3">
      <stop id="SvgjsStop4433" stop-opacity="1" stop-color="#e1ac8f" offset="0"/>
      <stop id="SvgjsStop4434" stop-opacity="0.3" stop-color="#e1ac8f" offset="0.7"/>
      <stop id="SvgjsStop4435" stop-opacity="0" stop-color="#f0c7b1" offset="1"/>
    </radialGradient>
    <radialGradient id="SvgjsRadialGradient4437" cx="68.931" cy="105.995" r="29.524" gradientTransform="matrix(1.0336 0 0 1.0336 -1.6796 1.3127)" gradientUnits="userSpaceOnUse" class="svga-on-canvas-eyesfront-gradient-left-4">
      <stop id="SvgjsStop4438" stop-opacity="0" stop-color="#000000" offset="0.95"/>
      <stop id="SvgjsStop4439" stop-opacity="0.2" stop-color="#000000" offset="1"/>
    </radialGradient>
    <radialGradient id="SvgjsRadialGradient4443" cx="128.643" cy="83.986" r="15.116" gradientTransform="matrix(0.9945 0.1042 -0.1042 0.9945 7.1738 -12.4633)" gradientUnits="userSpaceOnUse" class="svga-on-canvas-eyesfront-gradient-right-0">
      <stop id="SvgjsStop4444" stop-opacity="1" stop-color="#ffffff" offset="0"/>
      <stop id="SvgjsStop4445" stop-opacity="1" stop-color="#fcfdfd" offset="0.316"/>
      <stop id="SvgjsStop4446" stop-opacity="1" stop-color="#f4f7f8" offset="0.505"/>
      <stop id="SvgjsStop4447" stop-opacity="1" stop-color="#e5ecef" offset="0.661"/>
      <stop id="SvgjsStop4448" stop-opacity="1" stop-color="#d8e2e7" offset="0.76"/>
    </radialGradient>
    <radialGradient id="SvgjsRadialGradient4452" cx="121.587" cy="82.496" fx="132.839" fy="82.527" r="16.003" gradientTransform="matrix(-0.9998 0.0208 -0.0166 -0.7998 244.5208 145.9478)" gradientUnits="userSpaceOnUse" class="svga-on-canvas-eyesfront-gradient-right-3">
      <stop id="SvgjsStop4453" stop-opacity="1" stop-color="#e1ac8f" offset="0"/>
      <stop id="SvgjsStop4454" stop-opacity="0.3" stop-color="#e1ac8f" offset="0.7"/>
      <stop id="SvgjsStop4455" stop-opacity="0" stop-color="#f0c7b1" offset="1"/>
    </radialGradient>
    <radialGradient id="SvgjsRadialGradient4457" cx="69.316" cy="105.995" r="29.524" gradientTransform="matrix(-1.0336 0 0 1.0336 201.6796 1.3127)" gradientUnits="userSpaceOnUse" class="svga-on-canvas-eyesfront-gradient-right-4">
      <stop id="SvgjsStop4458" stop-opacity="0" stop-color="#000000" offset="0.95"/>
      <stop id="SvgjsStop4459" stop-opacity="0.2" stop-color="#000000" offset="1"/>
    </radialGradient>
    <radialGradient id="SvgjsRadialGradient4514" cx="-582.838" cy="-519.099" r="59.745" gradientTransform="matrix(0.0991 8.856319e-004 -0.0011 0.0991 131.1134 135.9855)" gradientUnits="userSpaceOnUse" class="svga-on-canvas-eyesiris-gradient-left-2">
      <stop id="SvgjsStop4515" stop-opacity="1" stop-color="#ffffff" offset="0"/>
      <stop id="SvgjsStop4516" stop-opacity="0" stop-color="#ffffff" offset="1"/>
    </radialGradient>
    <linearGradient id="SvgjsLinearGradient4520" x1="122.67" y1="88.268" x2="123.606" y2="87.152" gradientTransform="matrix(1 0 0 1 -52 0)" gradientUnits="userSpaceOnUse" class="svga-on-canvas-eyesiris-gradient-left-5">
      <stop id="SvgjsStop4521" stop-opacity="1" stop-color="#ffffff" offset="0"/>
      <stop id="SvgjsStop4522" stop-opacity="0" stop-color="#ffffff" offset="1"/>
    </linearGradient>
    <linearGradient id="SvgjsLinearGradient4524" x1="127.212" y1="82.296" x2="126.463" y2="83.189" gradientTransform="matrix(1 0 0 1 -52 0)" gradientUnits="userSpaceOnUse" class="svga-on-canvas-eyesiris-gradient-left-6">
      <stop id="SvgjsStop4525" stop-opacity="1" stop-color="#ffffff" offset="0"/>
      <stop id="SvgjsStop4526" stop-opacity="0" stop-color="#ffffff" offset="1"/>
    </linearGradient>
    <linearGradient id="SvgjsLinearGradient4528" x1="129.636" y1="79.822" x2="127.91" y2="81.879" gradientTransform="matrix(1 0 0 1 -52 0)" gradientUnits="userSpaceOnUse" class="svga-on-canvas-eyesiris-gradient-left-7">
      <stop id="SvgjsStop4529" stop-opacity="1" stop-color="#ffffff" offset="0"/>
      <stop id="SvgjsStop4530" stop-opacity="0" stop-color="#ffffff" offset="1"/>
    </linearGradient>
    <radialGradient id="SvgjsRadialGradient4537" cx="-582.833" cy="-519.102" r="59.747" gradientTransform="matrix(0.0991 8.856319e-004 -0.0011 0.0991 183.1126 135.9856)" gradientUnits="userSpaceOnUse" class="svga-on-canvas-eyesiris-gradient-right-2">
      <stop id="SvgjsStop4538" stop-opacity="1" stop-color="#ffffff" offset="0"/>
      <stop id="SvgjsStop4539" stop-opacity="0" stop-color="#ffffff" offset="1"/>
    </radialGradient>
    <linearGradient id="SvgjsLinearGradient4543" x1="122.67" y1="88.268" x2="123.606" y2="87.152" gradientUnits="userSpaceOnUse" class="svga-on-canvas-eyesiris-gradient-right-5">
      <stop id="SvgjsStop4544" stop-opacity="1" stop-color="#ffffff" offset="0"/>
      <stop id="SvgjsStop4545" stop-opacity="0" stop-color="#ffffff" offset="1"/>
    </linearGradient>
    <linearGradient id="SvgjsLinearGradient4547" x1="127.212" y1="82.296" x2="126.463" y2="83.189" gradientUnits="userSpaceOnUse" class="svga-on-canvas-eyesiris-gradient-right-6">
      <stop id="SvgjsStop4548" stop-opacity="1" stop-color="#ffffff" offset="0"/>
      <stop id="SvgjsStop4549" stop-opacity="0" stop-color="#ffffff" offset="1"/>
    </linearGradient>
    <linearGradient id="SvgjsLinearGradient4551" x1="129.636" y1="79.822" x2="127.91" y2="81.879" gradientUnits="userSpaceOnUse" class="svga-on-canvas-eyesiris-gradient-right-7">
      <stop id="SvgjsStop4552" stop-opacity="1" stop-color="#ffffff" offset="0"/>
      <stop id="SvgjsStop4553" stop-opacity="0" stop-color="#ffffff" offset="1"/>
    </linearGradient>
    <linearGradient id="SvgjsLinearGradient4616" x1="127.637" y1="79.822" x2="125.91" y2="81.88" gradientTransform="matrix(1 0 0 1 -50 0)" gradientUnits="userSpaceOnUse" class="svga-on-canvas-eyesiris-gradient-left-1">
      <stop id="SvgjsStop4617" stop-opacity="1" stop-color="#ffffff" offset="0"/>
      <stop id="SvgjsStop4618" stop-opacity="0" stop-color="#ffffff" offset="1"/>
    </linearGradient>
    <linearGradient id="SvgjsLinearGradient4621" x1="129.637" y1="79.823" x2="127.91" y2="81.881" gradientUnits="userSpaceOnUse" class="svga-on-canvas-eyesiris-gradient-right-1">
      <stop id="SvgjsStop4622" stop-opacity="1" stop-color="#ffffff" offset="0"/>
      <stop id="SvgjsStop4623" stop-opacity="0" stop-color="#ffffff" offset="1"/>
    </linearGradient>
    <linearGradient id="SvgjsLinearGradient4675" x1="100" y1="171" x2="100" y2="128" gradientUnits="userSpaceOnUse" class="svga-on-canvas-chinshadow-gradient-single-0">
      <stop id="SvgjsStop4676" stop-opacity="0.8" stop-color="#e1ac8f" offset="0"/>
      <stop id="SvgjsStop4677" stop-opacity="1" stop-color="#c27b55" offset="0.7"/>
    </linearGradient>
    <linearGradient id="SvgjsLinearGradient4754" x1="100" y1="141" x2="100" y2="137" gradientUnits="userSpaceOnUse" class="svga-on-canvas-mouth-gradient-single-0">
      <stop id="SvgjsStop4755" stop-opacity="1" stop-color="#e8b9a0" offset="0.1"/>
      <stop id="SvgjsStop4756" stop-opacity="1" stop-color="#e1ac8f" offset="1"/>
    </linearGradient>
  </defs>
  <g id="svga-group-wrapper">
    <g id="svga-group-backs-single"/>
    <g id="svga-group-humanwrap-move" transform="matrix(1,0,0,1,0,0)">
      <g id="svga-group-humanwrap" transform="matrix(1,0,0,1,0,0)">
        <g id="svga-group-hair-back-move" transform="matrix(1,0,0,1,0,0)">
          <g id="svga-group-hair-back" transform="matrix(1,0,0,1,0,0)">
            <path id="SvgjsPath4711" d="M100.5,100.5h-1v-1h1V100.5z" fill="#2a232b" stroke-width="none" opacity="1"/>
          </g>
        </g>
        <g id="svga-group-humanbody-single">
          <path id="SvgjsPath2911" d="M195.417 199.778c-2.196-4.746-8.195-11.779-14.86-13.722 -8.239-2.403-26.837-5.308-33.733-6.923 -5.528-1.296-16.662-11.294-20.564-14.65 -0.7-0.6-1.273-1.839-1.287-2.76 -0.139-10.864 4.195-39.724 4.195-39.724H100 70.833c0 0 4.334 28.859 4.193 39.724 -0.011 0.921-0.587 2.16-1.285 2.76 -3.902 3.356-15.036 13.354-20.564 14.65 -6.897 1.615-25.495 4.619-33.733 7.022 -6.667 1.942-12.664 8.876-14.86 13.622 -3.708 8.008-4.584 22.5-4.584 35h100 100C200 222.278 199.123 207.786 195.417 199.778z" fill="#f0c7b1" stroke-width="none" opacity="1" stroke="none"/>
          <path id="SvgjsPath2912" d="M159.156 184.058c24.342 3.542 34.586 8.708 37.794 50.721H200c0-12.5-0.877-26.992-4.583-35 -2.196-4.746-8.195-11.779-14.86-13.722 -8.239-2.403-26.837-5.308-33.733-6.923 -5.528-1.296-18.242-12.069-21.643-16.35 3.36 4.704 12.791 15.605 21.054 18.46C150.188 182.61 153.48 183.232 159.156 184.058zM53.766 181.244c8.263-2.854 17.693-13.756 21.054-18.46 -3.4 4.28-16.114 15.054-21.643 16.35 -6.896 1.615-25.494 4.619-33.733 7.022 -6.665 1.942-12.664 8.876-14.86 13.622 -3.706 8.008-4.583 22.5-4.583 35h3.05c3.188-41.744 13.475-47.183 37.794-50.721C46.52 183.232 49.813 182.61 53.766 181.244z" fill="#ffe4d6" stroke-width="none" opacity="1" stroke="none"/>
          <path id="SvgjsPath2913" d="M95.646 197.62c0 0-5.074-1.609-7.083-2.379 -10.449-4.009-44.395-6.607-44.395-6.607s35.754 1.419 43.644 2.779c-0.458-4.767-3.017-20.004-3.017-20.004s5.149 16.815 6.409 21.057C91.878 194.734 95.646 197.62 95.646 197.62zM106.445 196.278c-0.089 0.073-0.191 0.168-0.302 0.268C106.256 196.461 106.358 196.372 106.445 196.278zM95.646 197.62c0 0 2.893 2.992 4.347 3.03 1.91 0.051 4.828-2.899 6.151-4.104 -1.265 0.957-4.159 1.391-5.31 1.436C99.504 198.033 95.646 197.62 95.646 197.62zM116.664 190.101c-1.545 0.248-4.386 0.789-4.386 0.789l2.287-14.89c-0.646 3.071-4.474 16.211-8.12 20.278 1.91-1.616 6.158-2.391 8.324-2.704 10.236-1.484 10.232-1.483 41.062-4.94C155.831 188.634 126.76 188.479 116.664 190.101z" fill="#e1ac8f" stroke-width="none" opacity="1" stroke="none"/>
          <path id="SvgjsPath2914" d="M195.417 199.778c-2.196-4.746-8.195-11.779-14.86-13.722 -8.239-2.403-26.837-5.308-33.733-6.923 -5.528-1.296-16.662-11.294-20.564-14.65 -0.7-0.6-1.273-1.839-1.287-2.76 -0.139-10.864 4.195-39.724 4.195-39.724H100 70.833c0 0 4.334 28.859 4.193 39.724 -0.011 0.921-0.587 2.16-1.285 2.76 -3.902 3.356-15.036 13.354-20.564 14.65 -6.897 1.615-25.495 4.619-33.733 7.022 -6.667 1.942-12.664 8.876-14.86 13.622 -3.708 8.008-4.584 22.5-4.584 35h100 100C200 222.278 199.123 207.786 195.417 199.778z" fill="none" stroke="#c27b55" stroke-width="1.5" opacity="1"/>
        </g>
        <g id="svga-group-chinshadow-single">
          <path id="SvgjsPath4674" d="M124.272 162.248c-0.028-0.175-0.048-0.349-0.051-0.515 -0.094-7.38 1.819-22.721 3.098-32.078 -15.699-1.984-38.937-1.975-54.637 0.016 1.279 9.359 3.19 24.687 3.094 32.062 -0.001 0.119-0.014 0.243-0.03 0.367 3.825 3.586 7.667 6.528 11.055 8.151 5.312 2.546 21.035 2.427 26.401 0C116.613 168.71 120.456 165.812 124.272 162.248z" fill="url(#SvgjsLinearGradient4675)" opacity="1"/>
        </g>
        <g id="svga-group-clothes-single">
          <path id="SvgjsPath4700" d="M128.857 237.978H70.72v-56.183c22.25 4.699 36.88 4.337 58.138 0V237.978z" fill="#f3f1f3" stroke-width="none" opacity="1"/>
          <path id="SvgjsPath4701" d="M107.44 237.709c-2.775 0-10.727 0.208-16.512-0.23l-0.01-0.171c-0.818-18.658 1.129-30.719 4.537-39.288l0.048-0.123 -0.093-0.093c-0.905-0.904-2.425-1.935-4.034-3.025 -1.611-1.093-3.275-2.221-4.336-3.246 0.625-0.732 1.395-1.454 2.348-2.201 0.245-0.125 1.162-0.843 5.974-4.971 0.214-0.184 0.345-0.296 0.362-0.31 0.818-0.178 2.138-0.293 3.738-0.293 2.183 0 4.731 0.221 6.512 0.563 1.561 1.458 3.451 5.329 4.158 7.17 -0.976 2.291-2.128 3.129-3.717 4.284 -0.774 0.563-1.652 1.201-2.652 2.112l-0.083 0.075 0.021 0.111c4.026 20.31 4.027 25.054 4.027 29.642 0.001 2.021 0.001 6.609 0.339 9.985C107.917 237.707 107.704 237.709 107.44 237.709z" fill="#131111" stroke-width="none" opacity="1"/>
          <path id="SvgjsPath4702" d="M110.35 191.495c-0.754-1.995-2.71-5.93-4.28-7.359 -2.876-0.563-7.983-0.843-10.47-0.24 -0.108 0.088-6.248 5.383-6.31 5.26 -0.906 0.708-1.788 1.504-2.52 2.39 2.061 2.076 6.655 4.556 8.5 6.4 -3.65 9.18-5.33 21.59-4.55 39.38 0.01 0.11 0.01 0.23 0.02 0.34 6.756 0.52 16.55 0.331 17.55 0.223 -1.16-11.307 1.438-10.455-4.39-39.853C106.968 195.241 108.865 195.04 110.35 191.495zM105.1 210.535c-0.021-0.05-0.04-0.1-0.051-0.13 2 10.55 1.38 18.632 2.891 26.972 -4.736-0.318-12.014-0.052-16.771-0.052 0.369-7.198 1.188-31.684 4.74-39.74 0.17-0.046 0.339-0.084 0.509-0.125l-1.032 34.736 2.747-35.066c0.02-0.002 0.04-0.005 0.06-0.008l1.801 32.605 0.417-32.734c0.026 0.001 0.051-0.001 0.077 0l4.199 36.355 -2.3-36.137c0.314 0.063 0.629 0.141 0.942 0.233 0.03 0 0.07 0.01 0.1 0.03C103.533 198.476 104.365 205.876 105.1 210.535zM104.219 196.726c-2.774-1.251-6.363-1.026-9.129 0.24 -1.681-1.813-4.08-3.077-7.53-5.391 0.55-0.479 1.26-1.07 2.21-1.81 0.08 0 3.48-2.771 3.54-2.83 0.92-0.84 1.74-1.79 2.52-2.62 2.93-0.12 7.23 0.02 9.82 0.14 1.5 1.876 2.931 4.696 4.01 6.94C107.699 194.266 105.759 195.545 104.219 196.726z" fill="#000000" stroke-width="none" opacity="1"/>
          <path id="SvgjsPath4703" d="M78.196 213.077c-11.534-40.071-6.325-29.581-9.399-45.32 2.028-4.813 3.958-10.44 5.042-11.598l0.08-0.086c2.292 24.007 8.958 13.636 23.784 27.722C89.228 189.449 81.372 204.127 78.196 213.077zM131.193 167.758c-1.448-3.702-4.077-9.127-5.215-10.331 1.424 20.678-15.146 16.551-24.35 26.2 8.812 5.713 17.173 20.66 20.172 29.455C134.92 169.568 127.85 188.673 131.193 167.758z" fill="#f3f1f4" stroke-width="none" opacity="1"/>
          <path id="SvgjsPath4704" d="M125.801 156.967c0 5.137-0.42 9.162-1.262 10.339 -2.443 5.809-13.103 9.853-16.39 11.51 -2.495 1.227-4.942 2.809-6.83 4.85 3.813 2.476 5.705 3.383 12.93 14.44 4.246 7.109 6.539 12.448 7.561 15.64 13.378-44.331 6.222-24.978 9.59-46.01C129.814 163.65 126.801 157.885 125.801 156.967zM129.449 176.495c-1.957 18.078-3.491 14.485-7.74 34.181 -2.716-8.644-11.075-22.913-19.43-27.091 3.937-2.957 5.031-3.131 9.729-5.279 14.396-6.42 14.985-12.385 14.138-20.271 1.207 1.423 3.125 6.161 4.692 9.521C129.979 170.702 129.589 175.194 129.449 176.495zM79.199 171.896c-4.408-3.649-3.16-8.162-5.189-16.215 -0.902 1-3.146 6.632-5.42 12.055 0.557 2.796 0.681 7.389 0.76 8.84 0.559 12.202 1.75 12.765 8.83 37.16 3.031-8.905 11.558-24.37 20.24-30.009C91.489 177.401 82.765 174.999 79.199 171.896zM84.659 197.405c-2.221 3.666-4.517 7.48-6.37 13.28 -4.442-20.269-5.999-16.964-7.73-34.16 -0.32-2.971-0.617-6.027-1.4-8.96 1.638-3.588 3.981-10.281 4.731-10.995 1.366 7.078 0.066 13.462 5.669 16.995 2.621 1.996 11.104 5.32 17.52 10.36C93.188 186.235 91.094 187.596 84.659 197.405z" fill="#cfc8d7" stroke-width="none" opacity="1"/>
          <path id="SvgjsPath4705" d="M120.319 209.824l-1.209-2.654c0 0 9.148-28.175 10.743-36.225C130.765 179.299 120.319 209.824 120.319 209.824zM78.879 208.721l1.436-3.259c0 0-8.573-26.467-10.168-34.517C69.235 179.299 78.879 208.721 78.879 208.721z" fill="#e1e0e1" stroke-width="none" opacity="1"/>
          <path id="SvgjsPath4706" d="M124.787 195.605c7.065-20.834 2.756-22.551 6.305-29.469 0.134-0.261 1.396 1.046 1.533 1.64 1.306 5.658 53.349 17.338 54.994 18.598 1.456 1.058 5.65 3.137 5.65 3.137 4.937 9.07 7.762 10.698 9.15 34.984 0.13 3.083-0.061 11.801-0.061 14.141l-85.559-0.676C117.004 230.169 117.999 216.15 124.787 195.605zM75.213 195.605c-7.065-20.834-2.756-22.551-6.305-29.469 -0.134-0.261-1.396 1.046-1.533 1.64 -1.306 5.658-53.349 17.338-54.994 18.598 -1.456 1.058-5.65 3.137-5.65 3.137 -4.937 9.07-7.762 10.698-9.15 34.984 -0.13 3.083 0.061 11.801 0.061 14.141l85.559-0.676C82.996 230.169 82.001 216.15 75.213 195.605z" fill="#386e77" stroke-width="none" opacity="1"/>
          <path id="SvgjsPath4707" d="M130.307 190c-4.552 16.387-10.771 31.116-13.506 47.96 -0.89-0.007 1.491-22.695 7.986-42.354 7.065-20.834 2.756-22.551 6.305-29.469 0.077-0.15-0.619 1.976-0.223 2.432C130.723 176.296 132.625 182.272 130.307 190zM69.693 190c4.552 16.387 10.771 31.116 13.506 47.96 0.89-0.007-1.491-22.695-7.986-42.354 -7.065-20.834-2.756-22.551-6.305-29.469 -0.077-0.15 0.619 1.976 0.223 2.432C69.277 176.296 67.375 182.272 69.693 190z" fill="#265e68" stroke-width="none" opacity="1"/>
          <path id="SvgjsPath4708" d="M152.436 186.031c0 0-2.284 2.561-8.636 6.923 5.313-5.885 7.761-8.249 7.761-8.249L152.436 186.031zM154.611 197.906l-1.528-1.367c-4.538 13.781-7.571 20.587-12.828 36.618C147.799 218.831 149.599 213.745 154.611 197.906zM48.439 184.705c0 0 2.447 2.364 7.761 8.249 -6.352-4.362-8.636-6.923-8.636-6.923L48.439 184.705zM59.745 233.157c-5.257-16.031-8.29-22.837-12.828-36.618l-1.528 1.367C50.401 213.745 52.201 218.831 59.745 233.157z" fill="#184f58" stroke-width="none" opacity="1"/>
          <path id="SvgjsPath4709" d="M179.409 219.335c0-11.596 3.11-18.351 9.615-28.142 0.608 0.372 0.931 0.543 1.345 0.875C183.452 200.651 182.078 208.659 179.409 219.335zM141.312 230.703c6.113-16.703 8.06-23.228 12.107-34.388 -1.15-0.351-8.671-2.985-9.819-3.346 0.41 1 3.113 1.822 7.822 4.709C151.422 197.679 146.333 213.082 141.312 230.703zM149.533 184.577c0 0-3.352 4.14-6.664 8.328 3.388-2.67 5.748-5.644 8.691-8.2 -3.994-3.368-10.511-8.524-14.721-12.089C140.163 176.188 149.533 184.577 149.533 184.577zM202.073 238.634l0.286 0.002c0-2.34 0.19-11.058 0.061-14.141 -1.389-24.286-4.214-25.914-9.15-34.984 0 0-4.194-2.079-5.65-3.137 -1.334-1.021-38.794-9.922-52.49-15.88 16.011 10.971 46.282 15.027 55.24 21.574C194.702 195.235 200.535 222.337 202.073 238.634zM9.613 192.037c0.542-0.383 0.619-0.366 1.168-0.729 6.505 9.791 9.809 16.431 9.809 28.026C17.922 208.659 16.08 200.318 9.613 192.037zM48.578 197.679c4.709-2.887 7.412-3.709 7.822-4.709 -1.148 0.36-8.669 2.995-9.819 3.346 4.048 11.16 5.994 17.685 12.107 34.388C53.667 213.082 48.578 197.679 48.578 197.679zM63.16 172.616c-4.21 3.564-10.727 8.721-14.721 12.089 2.943 2.557 5.304 5.53 8.691 8.2 -3.313-4.188-6.664-8.328-6.664-8.328S59.837 176.188 63.16 172.616zM9.631 192.068c8.958-6.547 39.229-10.604 55.24-21.574 -13.696 5.958-51.156 14.858-52.49 15.88 -1.456 1.058-5.65 3.137-5.65 3.137 -4.937 9.07-7.762 10.698-9.15 34.984 -0.13 3.083 0.061 11.801 0.061 14.141l0.286-0.002C-0.535 222.337 5.298 195.235 9.631 192.068z" fill="#4d7e86" stroke-width="none" opacity="1"/>
          <path id="SvgjsPath4710" d="M132.246 166.374c-0.049-0.293-0.443-0.634-0.738-0.657 -0.296-0.023-0.432 0.458-0.567 0.722 -3.549 6.918 0.414 8.333-6.651 29.167 -6.788 20.545-7.584 34.862-7.787 42.653l85.857 0.377c0-2.34 0.489-11.058 0.359-14.141 -1.389-24.286-4.313-26.113-9.25-35.184 0 0-4.394-2.179-5.85-3.236 -4.889-3.742-0.59 0.023-22.03-6 -17.576-5.135-18.525-6.577-24.899-8.35 -1.288-0.369-4.057-0.822-6.95-2.851C133.475 168.689 132.341 166.944 132.246 166.374zM116.974 237.31c3.729-23.564 6.085-29.73 11.296-47.274 3.522-11.104 1.576-17.408 3.254-22.54 0.088-0.268 0.467-0.282 0.571-0.017 2.434 6.214 9.238 7.656 18.834 17.047 -5.813 5.813-7.309 7.38-8.06 8.38 0.864 0.438 5.582 2.229 9.9 3.9 -0.245 0.767-13.415 38.02-13.57 38.52 10-21.578 11.292-28.211 14.22-39.01 -0.812-0.612-7.892-3.212-9.09-3.64 4.274-4.424 5.51-5.396 7.53-7.971 1.622 0-15.874-13.318-16.73-14.211 0.462 0.364 2.752 1.391 3.01 1.491 14.682 5.166 3.065 2.829 35.2 12.001 3.072 0.781 7.355 1.567 10.53 1.879 0.218 0.02 5.395 2.727 8.35 3.97 -7.189 7.475-11.797 17.133-12.81 29.5 3.219-12.666 4.951-19.29 13.14-28.819 7.62 15.422 6.755 13.195 9.23 47.71C181.167 237.413 149.559 237.227 116.974 237.31zM66.261 168.875c-2.894 2.028-5.662 2.481-6.95 2.851 -6.374 1.772-7.323 3.215-24.899 8.35 -21.44 6.023-17.142 2.258-22.03 6 -1.456 1.058-5.85 3.236-5.85 3.236 -4.937 9.07-7.861 10.897-9.25 35.184 -0.13 3.083 0.359 11.801 0.359 14.141l85.857-0.377c-0.203-7.791-0.999-22.108-7.787-42.653 -7.065-20.834-3.103-22.249-6.651-29.167 -0.136-0.264-0.271-0.745-0.567-0.722 -0.295 0.023-0.689 0.364-0.738 0.657C67.659 166.944 66.525 168.689 66.261 168.875zM-1.779 238.226c2.476-34.515 1.61-32.288 9.23-47.71 8.188 9.529 9.921 16.153 13.14 28.819 -1.013-12.367-5.62-22.025-12.81-29.5 2.955-1.243 8.132-3.95 8.35-3.97 3.175-0.312 7.458-1.098 10.53-1.879 32.135-9.172 20.519-6.835 35.2-12.001 0.258-0.101 2.548-1.127 3.01-1.491 -0.856 0.893-18.353 14.211-16.73 14.211 2.021 2.575 3.256 3.547 7.53 7.971 -1.198 0.428-8.278 3.027-9.09 3.64 2.928 10.799 4.22 17.432 14.22 39.01 -0.155-0.5-13.325-37.753-13.57-38.52 4.318-1.672 9.036-3.463 9.9-3.9 -0.751-1-2.247-2.567-8.06-8.38 9.596-9.391 16.4-10.833 18.834-17.047 0.104-0.266 0.483-0.251 0.571 0.017 1.678 5.132-0.269 11.436 3.254 22.54 5.211 17.544 7.567 23.71 11.296 47.274C50.441 237.227 18.833 237.413-1.779 238.226z" fill="#0c4049" stroke-width="none" opacity="1"/>
        </g>
        <g id="svga-group-head" transform="matrix(1,0,0,1,0,0)">
          <g id="svga-group-ears-left-move" transform="matrix(1,0,0,1,0,0)">
            <g id="svga-group-ears-left" transform="matrix(1,0,0,1,0,0)">
              <path id="SvgjsPath3243" d="M47.34 82.506c-1.378-2.405-9.403-6.675-11.855-6.501 -4.229 0.299-5.137 5.269-5.446 7.648 -0.609 4.696 0.645 10 1.485 13.201 0.687 2.615 2.874 7.578 4.214 9.883 1.197 2.062 4.145 5.792 5.733 7.525 1.398 1.529 4.73 4.311 7.248 3.632 2.769-0.744 6.015-3.945 6.239-5.312C56.165 105.172 50.926 88.763 47.34 82.506z" fill="#f0c7b1" stroke="#c27b55" stroke-width="1.5" opacity="1"/>
              <path id="SvgjsPath3244" d="M42.903 99.38c-0.142-0.584 0.007-1.569 0.151-2.521 0.131-0.868 0.255-1.686 0.18-2.265 -0.284-2.169-1.888-6.29-2.936-8.524 -1.206-2.568-3.157-5.803-5.602-6.639 -1.011-0.346-2.073-0.522-2.145-0.241 -0.611 1.943-0.563 7.341-0.212 11.338 0.987 11.242 10.375 19.34 11.872 21.045 0.276 0.314 0.566 0.501 0.637 0.426 0.072-0.076-0.1-0.388-0.375-0.704 -1.477-1.692-8.314-8.684-9.27-13.098 -1.012-4.685 3-12.386 3.776-13.855 0.397 0.69 0.732 1.352 0.991 1.904 0.204 0.434 0.429 0.941 0.66 1.489 -0.456 0.767-3.656 6.36-2.489 10.836 0.431 1.651 2.379 3.778 3.67 4.362 0.71 0.321 0.978 0.801 1.287 1.355 0.359 0.645 0.765 1.374 1.946 1.903 0.24 0.108 0.457 0.151 0.649 0.151 0.333 0 0.586-0.135 0.773-0.295 0.019 0.282-0.349 2.52-0.357 2.853 -0.012 0.431 0.045 0.787 0.146 0.796 0.101 0.008 0.207-0.334 0.221-0.766 0.016-0.529 0.379-3.061 0.289-3.372 -0.264-0.923-1.073-1.964-1.93-3.068C43.994 101.407 43.122 100.284 42.903 99.38zM34.428 95.416c-2.316-7.184 1.456-13.479 1.977-14.464 0.906 0.826 1.704 1.932 2.354 3.015C38.286 84.83 34.526 90.584 34.428 95.416zM45.187 105.831c-1.069-0.479-1.427-1.12-1.774-1.742 -0.313-0.562-0.637-1.143-1.458-1.515 -0.179-0.082-0.375-0.204-0.576-0.346 -2.646-6.304 0.289-9.059 1.025-9.625 0.226 0.771 0.394 1.478 0.468 2.045 0.067 0.521-0.058 1.348-0.179 2.148 -0.149 0.992-0.305 2.018-0.144 2.681 0.239 0.989 1.137 2.146 2.005 3.263 0.771 0.993 1.562 2.015 1.832 2.849C46.271 105.757 45.905 106.155 45.187 105.831z" fill="#c27b55" stroke-width="none" opacity="1"/>
            </g>
          </g>
          <g id="svga-group-ears-right-move" transform="matrix(1,0,0,1,0,0)">
            <g id="svga-group-ears-right" transform="matrix(1,0,0,1,0,0)">
              <path id="SvgjsPath3245" d="M152.398 82.506c1.377-2.405 9.402-6.675 11.855-6.501 4.229 0.299 5.137 5.269 5.445 7.648 0.609 4.696-0.645 10-1.484 13.201 -0.688 2.615-2.875 7.578-4.215 9.883 -1.197 2.062-4.145 5.792-5.732 7.525 -1.398 1.529-4.73 4.311-7.248 3.632 -2.77-0.744-6.016-3.945-6.238-5.312C143.574 105.172 148.813 88.763 152.398 82.506z" fill="#f0c7b1" stroke="#c27b55" stroke-width="1.5" opacity="1"/>
              <path id="SvgjsPath3246" d="M154.902 102.491c-0.855 1.104-1.666 2.146-1.93 3.068 -0.09 0.312 0.273 2.843 0.289 3.372 0.014 0.432 0.119 0.773 0.221 0.766 0.102-0.009 0.158-0.365 0.146-0.796 -0.01-0.333-0.377-2.57-0.357-2.853 0.188 0.16 0.439 0.295 0.771 0.295 0.193 0 0.41-0.043 0.65-0.151 1.182-0.53 1.588-1.259 1.945-1.903 0.311-0.555 0.578-1.034 1.287-1.355 1.291-0.584 3.24-2.711 3.67-4.362 1.168-4.476-2.031-10.07-2.488-10.836 0.23-0.548 0.457-1.056 0.66-1.489 0.26-0.552 0.594-1.214 0.99-1.904 0.777 1.469 4.789 9.17 3.777 13.855 -0.955 4.415-7.793 11.406-9.27 13.098 -0.275 0.316-0.447 0.628-0.375 0.704 0.072 0.075 0.361-0.111 0.637-0.426 1.498-1.705 10.885-9.803 11.873-21.045 0.35-3.997 0.396-9.395-0.213-11.338 -0.072-0.281-1.135-0.104-2.145 0.241 -2.445 0.836-4.396 4.071-5.604 6.639 -1.047 2.234-2.65 6.354-2.936 8.524 -0.076 0.579 0.049 1.397 0.18 2.265 0.145 0.951 0.293 1.936 0.15 2.521C156.617 100.284 155.744 101.407 154.902 102.491zM160.979 83.966c0.65-1.083 1.449-2.188 2.355-3.015 0.52 0.986 4.291 7.28 1.977 14.464C165.211 90.584 161.453 84.83 160.979 83.966zM153.352 105.59c0.271-0.834 1.063-1.856 1.832-2.849 0.869-1.118 1.766-2.274 2.006-3.263 0.16-0.663 0.006-1.689-0.145-2.681 -0.121-0.8-0.246-1.627-0.178-2.148 0.074-0.567 0.242-1.273 0.467-2.045 0.736 0.566 3.672 3.321 1.025 9.625 -0.201 0.142-0.396 0.264-0.576 0.346 -0.82 0.372-1.145 0.953-1.457 1.515 -0.348 0.622-0.705 1.263-1.775 1.742C153.834 106.155 153.467 105.757 153.352 105.59z" fill="#c27b55" stroke-width="none" opacity="1"/>
            </g>
          </g>
          <g id="svga-group-faceshape-wrap" transform="matrix(1,0,0,1,0,0)">
            <g id="svga-group-faceshape-single">
              <path id="SvgjsPath4671" d="M144.004 126.997c-5.003 10.225-20.047 28.437-30.801 33.266 -5.366 2.412-21.089 2.53-26.401 0 -10.646-5.067-25.765-23.057-30.801-33.266C50.388 115.623 41.15 78.444 41.138 78.39c-1.3-4.988-1.996-10.225-2.004-15.623 -0.052-34 27.154-61.598 60.772-61.65 33.621-0.053 60.913 27.457 60.963 61.456 0.009 5.4-0.669 10.638-1.952 15.631C158.901 78.256 149.6 115.559 144.004 126.997z" fill="#f0c7b1" stroke-width="none" opacity="1"/>
              <path id="SvgjsPath4672" d="M110.152 1.982c26.994 6.338 47.097 30.814 47.052 60.039 -0.009 5.399-0.704 10.635-2.004 15.624 -0.012 0.054-8.61 37.245-14.13 48.608 -4.859 10.004-19.7 27.468-30.067 32.521 -2.163 1.055-8.694 1.555-11.001 1.555 -2.307 0-8.837-0.5-11-1.555 -10.367-5.053-25.209-22.517-30.067-32.521 -5.521-11.363-14.119-48.554-14.13-48.608 -1.3-4.988-1.996-10.225-2.004-15.624C42.756 32.796 62.857 8.32 89.853 1.982 61.03 6.877 39.087 32.232 39.134 62.767c0.008 5.398 0.704 10.635 2.004 15.623 0.012 0.054 9.232 37.241 14.863 48.607 5.052 10.199 20.207 28.085 30.801 33.266 2.658 1.301 9.305 1.855 12.954 1.853 3.646 0.003 10.791-0.552 13.447-1.853 10.594-5.182 25.748-23.066 30.801-33.266 5.631-11.366 14.852-48.553 14.862-48.607 1.3-4.988 1.996-10.225 2.004-15.623C160.918 32.232 138.975 6.877 110.152 1.982z" fill="#e8b9a0" stroke-width="none" opacity="1"/>
              <path id="SvgjsPath4673" d="M144.004 126.997c-5.003 10.225-20.047 28.437-30.801 33.266 -5.366 2.412-21.089 2.53-26.401 0 -10.646-5.067-25.765-23.057-30.801-33.266C50.388 115.623 41.15 78.444 41.138 78.39c-1.3-4.988-1.996-10.225-2.004-15.623 -0.052-34 27.154-61.598 60.772-61.65 33.621-0.053 60.913 27.457 60.963 61.456 0.009 5.4-0.669 10.638-1.952 15.631C158.901 78.256 149.6 115.559 144.004 126.997z" fill="none" stroke="#c27b55" stroke-width="1.5" opacity="1"/>
            </g>
          </g>
          <g id="svga-group-mouth-single-move" transform="matrix(1,0,0,1,0,0)">
            <g id="svga-group-mouth-single" transform="matrix(1,0,0,1,0,0)">
              <path id="SvgjsPath4753" d="M100.671 140.999c-5.683-0.008-7.963-3.983-7.963-3.983 6.845 2.441 15.408 0.264 15.408 0.264S106.377 141.008 100.671 140.999z" fill="url(#SvgjsLinearGradient4754)" opacity="1"/>
              <path id="SvgjsPath4757" d="M81.783 130.557c3.57-0.112 10.625-0.609 13.211-0.457 1.337 0.079 3.53 0.999 4.971 1.313 1.003 0.22 4.814-0.817 5.842-0.822 2.687-0.017 8.513 1.274 11.642 1.782 0.173 0.027 0 0 0 0s-7.699 6.575-17.56 6.143C88.728 138.025 81.783 130.557 81.783 130.557S81.606 130.562 81.783 130.557z" fill="#da7c87" stroke-width="none" opacity="1"/>
              <path id="SvgjsPath4758" d="M117.743 132.177c-0.085-0.126-0.641-0.245-0.846-0.221 -0.373 0.044-0.643 0.389-1.425 0.458 -0.904 0.084-5.695 0.815-7.002 0.782 -2.629-0.064-5.647 0.561-8.157 0.451 -2.513-0.11-6.464-1.159-9.077-1.344 -1.297-0.092-6.623-1.333-7.505-1.507 -0.759-0.15-0.82-0.506-1.125-0.607 -0.215-0.074-0.832-0.023-0.999 0.09 -0.145 0.1-0.1 0.557 0.001 0.683 0.248 0.305 1.167 0.435 1.838 0.568 0.931 0.184 6.336 1.438 7.67 1.532 2.586 0.186 6.589 1.303 9.123 1.414 2.532 0.112 5.608-0.587 8.21-0.521 1.338 0.034 6.197-0.699 7.156-0.784 0.694-0.064 1.556-0.179 1.876-0.402C117.634 132.664 117.826 132.309 117.743 132.177z" fill="#ac2e3d" stroke-width="none" opacity="1"/>
              <path id="SvgjsPath4759" d="M99.999 137.244c-4.411-0.192-11.369-1.912-14.032-4.152 1.629 0.195 5.155 0.481 6.772 0.693 1.997 0.265 4.761 1.003 6.795 1.192 2.196 0.202 5.2-0.237 7.342-0.422 1.79-0.153 4.563-0.661 6.35-0.72C110.221 135.628 104.257 137.43 99.999 137.244zM107.157 132.606c1.602-0.081 4.101-0.628 5.694-0.675 -1.796-0.491-4.499-0.493-6.406-0.697 -1.646-0.174-4.155 0.69-5.787 0.804 -1.838 0.132-4.022-1.204-5.733-1.333 -1.857-0.138-5.733 0.283-7.555 0.604 1.556 0.17 4.94 0.433 6.472 0.682 1.878 0.306 4.573 0.966 6.522 1.052C102.362 133.131 105.183 132.708 107.157 132.606z" fill="#e28c96" stroke-width="none" opacity="1"/>
              <path id="SvgjsPath4760" d="M100.006 136.455c-2.626-0.118-6.989-1.062-8.873-2.365 0.482 0.022 1.884 0.146 2.348 0.189 0.146 0.015 0.293 0.031 0.438 0.05 0.757 0.101 1.489 0.304 2.271 0.515 0.759 0.207 2.481 0.47 3.329 0.557 0.167 0.019 0.333 0.027 0.501 0.034 1.043 0.048 2.983-0.061 3.943-0.21 0.609-0.095 1.182-0.192 1.77-0.247 0.32-0.032 0.669-0.047 1.061-0.049 0.336-0.003 0.689 0.006 1.036 0.017C106.063 135.841 102.713 136.574 100.006 136.455z" fill="#e99ca5" stroke-width="none" opacity="1"/>
              <path id="SvgjsPath4761" d="M79.382 131.481c0 0-0.708-1.188-0.609-1.633 0.139-0.619 1.923-1.85 1.923-1.85s-1.08 1.415-1.247 1.863C79.288 130.294 79.382 131.481 79.382 131.481z" fill="#c27b55" stroke-width="none" opacity="1"/>
            </g>
          </g>
          <g id="svga-group-eyes-left-move" transform="matrix(1,0,0,1,0,0)">
            <g id="svga-group-eyes-left" transform="matrix(1,0,0,1,0,0)">
              <g id="svga-group-eyesback-left">
                <path id="SvgjsPath4408" d="M61.752 82.523c-0.506-2.285 5.191-3.973 12.711-3.051 7.518 0.923 12.738 5.524 12.052 7.844 -0.38 1.286-10.639 3.245-14.253 2.847C68.598 89.758 62.974 88.04 61.752 82.523z" fill="url(#SvgjsRadialGradient4409)" opacity="1"/>
              </g>
              <g id="svga-group-eyesiriswrapper-left" transform="matrix(1,0,0,1,0.25,0.25)">
                <g id="svga-group-eyesiriscontrol-left" transform="matrix(1,0,0,1,0,0)">
                  <g id="svga-group-eyesiris-left" transform="matrix(1,0,0,1,0,0)">
                    <path id="SvgjsPath4717" d="M72.59 83.677l-4.437-1.012C68.056 83.095 68 83.54 68 83.999c0 0.459 0.057 0.905 0.154 1.334L74 83.999 72.59 83.677z" fill="#ea2e2e" stroke-width="none" opacity="1"/>
                    <path id="SvgjsPath4718" d="M69.313 87.738c0.559 0.7 1.271 1.268 2.086 1.661l2.6-5.399L69.313 87.738z" fill="#f09330" stroke-width="none" opacity="1"/>
                    <path id="SvgjsPath4719" d="M74 89.999c0.933 0 1.813-0.219 2.6-0.599L74 84 74 89.999z" fill="#64398e" stroke-width="none" opacity="1"/>
                    <path id="SvgjsPath4720" d="M74 84l4.688 3.738c0.554-0.693 0.955-1.51 1.158-2.404L74 84z" fill="#393b97" stroke-width="none" opacity="1"/>
                    <path id="SvgjsPath4721" d="M74 83.999l1.826-0.416 4.02-0.918c-0.203-0.894-0.604-1.711-1.158-2.404L74 83.999z" fill="#00aa4f" stroke-width="none" opacity="1"/>
                    <path id="SvgjsPath4722" d="M76.6 78.598c-0.788-0.38-1.667-0.599-2.6-0.599v5.999L76.6 78.598z" fill="#fae636" stroke-width="none" opacity="1"/>
                    <path id="SvgjsPath4723" d="M71.398 78.599c-0.814 0.393-1.527 0.961-2.086 1.662l4.687 3.738L71.398 78.599z" fill="#9c2d91" stroke-width="none" opacity="1"/>
                    <path id="SvgjsPath4724" d="M74 83.999l5.846 1.334C79.943 84.904 80 84.458 80 83.999s-0.057-0.905-0.154-1.334l-4.02 0.918L74 83.999z" fill="#ea2e2e" stroke-width="none" opacity="1"/>
                    <path id="SvgjsPath4725" d="M74 83.999L74 83.999 74 83.999l2.601 5.401c0.815-0.394 1.528-0.962 2.087-1.662L74 83.999 74 83.999z" fill="#9b328d" stroke-width="none" opacity="1"/>
                    <path id="SvgjsPath4726" d="M74 84L74 84 74 84 74 84 74 84 74 84 74 84l-2.6 5.4c0.787 0.38 1.667 0.599 2.6 0.599h0L74 84 74 84z" fill="#fde92b" stroke-width="none" opacity="1"/>
                    <path id="SvgjsPath4727" d="M74 84L74 84 74 84 74 84 74 84 74 84 74 84 74 84 74 84 74 84 74 84l-5.845 1.334c0.203 0.894 0.605 1.712 1.158 2.405L74 84 74 84z" fill="#00aa4f" stroke-width="none" opacity="1"/>
                    <path id="SvgjsPath4728" d="M74 83.999L74 83.999 74 83.999 74 83.999 74 83.999 74 83.999 74 83.999v-6c-0.934 0-1.813 0.219-2.601 0.599L74 83.999 74 83.999z" fill="#65378f" stroke-width="none" opacity="1"/>
                    <path id="SvgjsPath4729" d="M74 83.999L74 83.999 74 83.999l4.688-3.739c-0.559-0.7-1.272-1.269-2.087-1.662L74 83.999 74 83.999z" fill="#ec9236" stroke-width="none" opacity="1"/>
                    <path id="SvgjsPath4730" d="M74 83.999L74 83.999l-4.688-3.739c-0.554 0.693-0.955 1.511-1.158 2.404l4.436 1.013L74 83.999z" fill="#393b97" stroke-width="none" opacity="1"/>
                    <path id="SvgjsPath4731" d="M74 77.999c3.314 0 6 2.686 6 6s-2.686 6-6 6 -6-2.686-6-6S70.686 77.999 74 77.999z" fill="#000000" stroke-width="none" opacity="0.3"/>
                    <path id="SvgjsPath4732" d="M76.333 83.999c0 1.289-1.044 2.333-2.333 2.333s-2.333-1.045-2.333-2.333 1.044-2.333 2.333-2.333S76.333 82.71 76.333 83.999z" fill="#000000" stroke-width="none" opacity="1"/>
                    <path id="SvgjsPath4733" d="M71.769 88.072c-0.313 0.313-0.931 0.202-1.38-0.246 -0.449-0.449-0.56-1.067-0.246-1.38 0.313-0.313 0.93-0.203 1.379 0.246C71.971 87.141 72.082 87.759 71.769 88.072z" fill="#ffffff" stroke-width="none" opacity="0.6"/>
                    <path id="SvgjsPath4734" d="M78.539 82.884c-0.468 0.469-1.602 0.094-2.533-0.836s-1.305-2.065-0.837-2.533c0.469-0.469 1.604-0.095 2.533 0.836C78.633 81.281 79.008 82.416 78.539 82.884z" fill="#ffffff" stroke-width="none" opacity="0.9"/>
                  </g>
                </g>
              </g>
              <g id="svga-group-eyesfront-left">
                <path id="SvgjsPath4430" d="M53.294 83c0.809 10.899 11.637 23.583 20.506 22.236 10.498 0.106 20.864-7.868 20.864-22.305s-5.087-26.528-21.127-26.528C62.037 56.402 53.294 68.563 53.294 83zM61.752 82.523c-0.506-2.285 5.191-3.973 12.711-3.051 7.518 0.923 12.738 5.524 12.052 7.844 -0.38 1.286-10.639 3.245-14.253 2.847C68.598 89.758 62.974 88.04 61.752 82.523z" fill="#f0c7b1" stroke-width="none" opacity="1"/>
                <path id="SvgjsPath4431" d="M72.262 90.163c3.614 0.398 13.873-1.561 14.253-2.847 0.687-2.32-4.534-6.921-12.052-7.844C68.003 78.68 62.9 79.816 61.907 81.6c0.898-6.4 7.7-11.397 15.987-11.434 8.911-0.037 16.148 5.676 16.172 12.765 0.021 7.088-7.185 12.862-16.095 12.902 -8.913 0.037-16.149-5.676-16.173-12.764 0-0.105 0.016-0.208 0.019-0.313C63.147 88.083 68.651 89.764 72.262 90.163z" fill="url(#SvgjsRadialGradient4432)" opacity="1"/>
                <path id="SvgjsPath4436" d="M61.752 82.523c-0.506-2.285 5.191-3.973 12.711-3.051 7.518 0.923 12.738 5.524 12.052 7.844 -0.38 1.286-10.639 3.245-14.253 2.847C68.598 89.758 62.974 88.04 61.752 82.523z" fill="url(#SvgjsRadialGradient4437)" opacity="1"/>
                <path id="SvgjsPath4440" d="M62.148 77.417c4.208-1.978 9.35-2.16 13.838-1.005 2.404 0.561 4.965 1.285 7.063 2.638 1.945 1.135 3.525 2.5 5.002 4.19 -1.342-1.701-2.773-3.118-4.623-4.27 -2.276-1.416-4.769-2.294-7.364-2.916C71.478 74.928 66.342 75.184 62.148 77.417z" fill="#c27b55" stroke-width="none" opacity="1"/>
                <path id="SvgjsPath4441" d="M62.769 78.02c0.88-0.352 4.065-1 5.456-1.066 1.687-0.082 5.073 0.125 6.735 0.424 3.374 0.608 9.251 2.483 11.678 7.184 0.746 1.445 0.074 2.456-0.123 2.675 0.3-2.426-4.838-6.746-12.052-7.604 -7.52-0.894-13.217 0.743-12.711 2.958 1.222 5.348 6.846 7.013 10.51 7.405 4.099 0.439 11.684-1.539 12.686-1.753 -1.999 1.009-7.524 2.095-9.767 2.303 -0.744 0.07-2.24 0.104-2.986 0.085 -5.949-0.158-10.169-3.175-11.729-7.26C59.464 80.745 60.56 78.902 62.769 78.02z" fill="#000000" stroke-width="none" opacity="1"/>
              </g>
            </g>
          </g>
          <g id="svga-group-eyes-right-move" transform="matrix(1,0,0,1,0,0)">
            <g id="svga-group-eyes-right" transform="matrix(1,0,0,1,0,0)">
              <g id="svga-group-eyesback-right">
                <path id="SvgjsPath4415" d="M137.849 82.523c0.506-2.285-5.191-3.973-12.711-3.051 -7.518 0.923-12.738 5.524-12.052 7.844 0.38 1.286 10.639 3.245 14.253 2.847C131.003 89.758 136.627 88.04 137.849 82.523z" fill="url(#SvgjsRadialGradient4416)" opacity="1"/>
              </g>
              <g id="svga-group-eyesiriswrapper-right" transform="matrix(1,0,0,1,-0.25,0.25)">
                <g id="svga-group-eyesiriscontrol-right" transform="matrix(1,0,0,1,0,0)">
                  <g id="svga-group-eyesiris-right" transform="matrix(1,0,0,1,0,0)">
                    <path id="SvgjsPath4735" d="M124.591 83.677l-4.438-1.012c-0.098 0.43-0.153 0.875-0.153 1.334 0 0.459 0.057 0.905 0.154 1.334l5.845-1.334L124.591 83.677z" fill="#ea2e2e" stroke-width="none" opacity="1"/>
                    <path id="SvgjsPath4736" d="M121.313 87.738c0.559 0.7 1.272 1.268 2.086 1.661L125.999 84 121.313 87.738z" fill="#f09330" stroke-width="none" opacity="1"/>
                    <path id="SvgjsPath4737" d="M126.001 89.999c0.933 0 1.813-0.219 2.6-0.599L126 84 126.001 89.999z" fill="#64398e" stroke-width="none" opacity="1"/>
                    <path id="SvgjsPath4738" d="M126 84l4.688 3.738c0.553-0.693 0.953-1.51 1.157-2.404L126 84z" fill="#393b97" stroke-width="none" opacity="1"/>
                    <path id="SvgjsPath4739" d="M126 83.999l1.825-0.416 4.021-0.918c-0.204-0.894-0.604-1.711-1.157-2.404L126 83.999z" fill="#00aa4f" stroke-width="none" opacity="1"/>
                    <path id="SvgjsPath4740" d="M128.601 78.598c-0.788-0.38-1.668-0.599-2.601-0.599v5.999L128.601 78.598z" fill="#fae636" stroke-width="none" opacity="1"/>
                    <path id="SvgjsPath4741" d="M123.398 78.599c-0.813 0.393-1.527 0.961-2.087 1.662l4.688 3.738L123.398 78.599z" fill="#9c2d91" stroke-width="none" opacity="1"/>
                    <path id="SvgjsPath4742" d="M126 83.999l5.846 1.334c0.098-0.43 0.154-0.875 0.154-1.334s-0.057-0.905-0.154-1.334l-4.021 0.918L126 83.999z" fill="#ea2e2e" stroke-width="none" opacity="1"/>
                    <path id="SvgjsPath4743" d="M126 83.999L126 83.999 126 83.999l2.601 5.401c0.814-0.394 1.529-0.962 2.088-1.662L126 83.999 126 83.999z" fill="#9b328d" stroke-width="none" opacity="1"/>
                    <path id="SvgjsPath4744" d="M126 84L126 84 126 84 126 84 126 84 126 84 126 84l-2.601 5.4c0.787 0.38 1.668 0.599 2.601 0.599h0.001L126 84 126 84z" fill="#fde92b" stroke-width="none" opacity="1"/>
                    <path id="SvgjsPath4745" d="M125.999 84L125.999 84 125.999 84 125.999 84 125.999 84 125.999 84 125.999 84 125.999 84 125.999 84 125.999 84 125.999 84l-5.845 1.334c0.204 0.894 0.604 1.712 1.158 2.405L125.999 84 125.999 84z" fill="#00aa4f" stroke-width="none" opacity="1"/>
                    <path id="SvgjsPath4746" d="M126 83.999L126 83.999 126 83.999 126 83.999 126 83.999 126 83.999 126 83.999v-6c-0.934 0-1.813 0.219-2.601 0.599L126 83.999 126 83.999z" fill="#65378f" stroke-width="none" opacity="1"/>
                    <path id="SvgjsPath4747" d="M126 83.999L126 83.999 126 83.999l4.688-3.739c-0.559-0.7-1.273-1.269-2.088-1.662L126 83.999 126 83.999z" fill="#ec9236" stroke-width="none" opacity="1"/>
                    <path id="SvgjsPath4748" d="M125.999 83.999L125.999 83.999l-4.688-3.739c-0.553 0.693-0.953 1.511-1.157 2.404l4.437 1.013L125.999 83.999z" fill="#393b97" stroke-width="none" opacity="1"/>
                    <path id="SvgjsPath4749" d="M126 77.999c3.313 0 6 2.686 6 6s-2.687 6-6 6 -6-2.686-6-6S122.687 77.999 126 77.999z" fill="#000000" stroke-width="none" opacity="0.3"/>
                    <path id="SvgjsPath4750" d="M128.333 83.999c0 1.289-1.044 2.333-2.333 2.333s-2.333-1.045-2.333-2.333 1.044-2.333 2.333-2.333S128.333 82.71 128.333 83.999z" fill="#000000" stroke-width="none" opacity="1"/>
                    <path id="SvgjsPath4751" d="M123.769 88.072c-0.313 0.313-0.93 0.202-1.379-0.246 -0.449-0.449-0.561-1.067-0.246-1.38 0.313-0.313 0.93-0.203 1.379 0.246C123.971 87.141 124.081 87.759 123.769 88.072z" fill="#ffffff" stroke-width="none" opacity="0.6"/>
                    <path id="SvgjsPath4752" d="M130.539 82.884c-0.468 0.469-1.603 0.094-2.533-0.836s-1.305-2.064-0.837-2.533c0.469-0.469 1.604-0.095 2.533 0.836C130.633 81.281 131.008 82.416 130.539 82.884z" fill="#ffffff" stroke-width="none" opacity="0.9"/>
                  </g>
                </g>
              </g>
              <g id="svga-group-eyesfront-right">
                <path id="SvgjsPath4450" d="M126.063 56.402c-16.04 0-21.127 12.091-21.127 26.528s10.366 22.412 20.864 22.305c8.869 1.347 19.697-11.337 20.506-22.236C146.307 68.563 137.563 56.402 126.063 56.402zM127.339 90.163c-3.614 0.398-13.873-1.561-14.253-2.847 -0.687-2.32 4.534-6.921 12.052-7.844 7.52-0.922 13.217 0.767 12.711 3.051C136.627 88.04 131.003 89.758 127.339 90.163z" fill="#f0c7b1" stroke-width="none" opacity="1"/>
                <path id="SvgjsPath4451" d="M127.339 90.163c-3.614 0.398-13.873-1.561-14.253-2.847 -0.687-2.32 4.534-6.921 12.052-7.844 6.46-0.792 11.563 0.345 12.556 2.128 -0.898-6.4-7.7-11.397-15.987-11.434 -8.911-0.037-16.148 5.676-16.172 12.765 -0.021 7.088 7.185 12.862 16.095 12.902 8.913 0.037 16.149-5.676 16.173-12.764 0-0.105-0.016-0.208-0.019-0.313C136.453 88.083 130.949 89.764 127.339 90.163z" fill="url(#SvgjsRadialGradient4452)" opacity="1"/>
                <path id="SvgjsPath4456" d="M137.849 82.523c0.506-2.285-5.191-3.973-12.711-3.051 -7.518 0.923-12.738 5.524-12.052 7.844 0.38 1.286 10.639 3.245 14.253 2.847C131.003 89.758 136.627 88.04 137.849 82.523z" fill="url(#SvgjsRadialGradient4457)" opacity="1"/>
                <path id="SvgjsPath4460" d="M137.452 77.417c-4.208-1.978-9.35-2.16-13.838-1.005 -2.404 0.561-4.965 1.285-7.063 2.638 -1.945 1.135-3.525 2.5-5.002 4.19 1.342-1.701 2.773-3.118 4.623-4.27 2.276-1.416 4.769-2.294 7.364-2.916C128.123 74.928 133.259 75.184 137.452 77.417z" fill="#c27b55" stroke-width="none" opacity="1"/>
                <path id="SvgjsPath4461" d="M136.832 78.02c-0.88-0.352-4.065-1-5.456-1.066 -1.687-0.082-5.073 0.125-6.735 0.424 -3.374 0.608-9.251 2.483-11.678 7.184 -0.746 1.445-0.074 2.456 0.123 2.675 -0.3-2.426 4.838-6.746 12.052-7.604 7.52-0.894 13.217 0.743 12.711 2.958 -1.222 5.348-6.846 7.013-10.51 7.405 -4.099 0.439-11.684-1.539-12.686-1.753 1.999 1.009 7.524 2.095 9.767 2.303 0.744 0.07 2.24 0.104 2.986 0.085 5.949-0.158 10.169-3.175 11.729-7.26C140.137 80.745 139.041 78.902 136.832 78.02z" fill="#000000" stroke-width="none" opacity="1"/>
              </g>
            </g>
          </g>
          <g id="svga-group-facehighlight-single">
            <path id="SvgjsPath2903" d="M141 113.974c0.035 22.622-18.292 40.994-40.938 41.025 -22.642 0.037-41.028-18.273-41.063-40.9 -0.035-22.62 18.292-41.064 40.937-41.1C122.579 72.964 140.967 91.349 141 113.974z" fill="url(#SvgjsRadialGradient2904)" opacity="1"/>
            <path id="SvgjsPath2907" d="M137.5 53.999c0 20.711-16.789 37.5-37.499 37.5 -20.711 0-37.501-16.789-37.501-37.5s16.79-37.5 37.501-37.5C120.711 16.499 137.5 33.288 137.5 53.999z" fill="url(#SvgjsRadialGradient2908)" opacity="1"/>
          </g>
          <g id="svga-group-eyebrows-left-move" transform="matrix(1,0,0,1,0,0)">
            <g id="svga-group-eyebrows-left-rotate" transform="matrix(1,0,0,1,0,0)">
              <g id="svga-group-eyebrows-left" transform="matrix(1,0,0,1,0,0)">
                <path id="SvgjsPath2928" d="M54 74.189c9.954-9.974 16.761-5.915 30.589-3.264 0.845 0.162 6.32 1.539 5.31 3.469 -0.483 0.924-2.036 0.814-2.903 0.798C73.308 74.936 66.652 65.197 54 74.189z" fill="#2a232b" stroke-width="none" opacity="1"/>
              </g>
            </g>
          </g>
          <g id="svga-group-eyebrows-right-move" transform="matrix(1,0,0,1,0,0)">
            <g id="svga-group-eyebrows-right-rotate" transform="matrix(1,0,0,1,0,0)">
              <g id="svga-group-eyebrows-right" transform="matrix(1,0,0,1,0,0)">
                <path id="SvgjsPath2929" d="M146 74.189c-9.953-9.974-16.761-5.915-30.589-3.264 -0.846 0.162-6.32 1.539-5.311 3.469 0.483 0.924 2.036 0.814 2.903 0.798C126.691 74.936 133.348 65.197 146 74.189z" fill="#2a232b" stroke-width="none" opacity="1"/>
              </g>
            </g>
          </g>
          <g id="svga-group-nose-single-move" transform="matrix(1,0,0,1,0,0)">
            <g id="svga-group-nose-single" transform="matrix(1,0,0,1,0,0)">
              <path id="SvgjsPath4660" d="M100.729 120.838c-0.354 0.161-1.185 0.161-1.448-0.103 0 0-6.296-2.153-5.498-4.215 1.264-3.262 12.727-0.761 12.717 0C106.475 118.462 100.729 120.838 100.729 120.838z" fill="#e1ac8f" stroke-width="none" opacity="1"/>
              <path id="SvgjsPath4661" d="M92.215 113.609c0 0 5.448-18.624 6.008-22.61 1.063 6.47-1.503 20.873-1.774 23.812 -0.329 3.569 3.455 5.688 3.455 5.688 0.293 0.371-0.061 0.602-0.516 0.456l-6.631-2.559C91.186 117.061 91.186 115.79 92.215 113.609zM103.176 116.911c0.915 0.207 1.106 0.576 1.035 0.957 -0.069 0.385-0.462 0.911-1.288 0.43 -0.907-0.526-2.619-0.767-2.619-0.767S102.261 116.701 103.176 116.911z" fill="#c27b55" stroke-width="none" opacity="1"/>
            </g>
          </g>
          <g id="svga-group-beardwrap" transform="matrix(1,0,0,1,0,0)">
            <g id="svga-group-beard-single-move" transform="matrix(1,0,0,1,0,0)">
              <g id="svga-group-beard-single" transform="matrix(1,0,0,1,0,0)">
                <path id="SvgjsPath3039" d="M100,18.13L100,18.13L100,18.13L100,18.13z" fill="#2a232b" stroke-width="none" opacity="1"/>
              </g>
            </g>
          </g>
          <g id="svga-group-mustache-single-move" transform="matrix(1,0,0,1,0,0)">
            <g id="svga-group-mustache-single" transform="matrix(1,0,0,1,0,0)">
              <path id="SvgjsPath3037" d="M100,18.13L100,18.13L100,18.13L100,18.13z" fill="#2a232b" stroke-width="none" opacity="1"/>
            </g>
          </g>
          <g id="svga-group-hair-front" transform="matrix(1,0,0,1,0,0)">
            <path id="SvgjsPath4713" d="M152.983 98.604c-4.563-12.435 0.717-31.506-8.205-45.615 -4.064-6.762-7.597-11.409-6.95-19.276l-0.368-0.124c-0.862 1.352-1.994 2.82-2.745 3.76 0.427-1.091 1.123-2.762 1.753-4.023l-0.332-0.218c-2.585 3.073-4.805 4.649-7.859 5.5 3.3-2.32 6.949-6.357 8.546-8.595l-0.271-0.284c-11.319 7.283-24.164 7.382-35.496 7.471 -10.227 0.076-16.579-0.155-23.953-4.441 -5.321 1.764-9.511 1.539-14.116-1.635 -14.414 27.947-8.01 13.957-16.627 65.764 -5.004-6.67-6.458-10.912-7.642-17.267 -0.313-2.027-0.619-5.154-0.429-7.215l-0.063-0.065c-4.452-9.77-6.553-15.333-5.495-34.712 0.785-8.04 2.533-14.076 7.574-20.398 -0.665-3.435-0.729-6.898-0.277-10.21 -2.64-4.827-4.457-9.795-5.165-11.57 3.688 2.823 3.993 2.986 7.07 3.957 0.704-1.937 1.73-3.861 2.387-4.865 0.297 2.238 0.533 3.75 1.203 5.925 0.228 0.055 1.313 0.349 1.66 0.442 -0.199-1.324-0.381-1.938-0.353-3.125 0.571 1.302 1.053 1.604 2.71 3.626 1.834 0.385 1.394 0.328 1.944 0.328 -2.669-4.183-4.47-7.885-4.927-13.515 3.653 2.081 8.764 3.27 14.101 3.27 12.539 0 25.369-9.412 43.169-9.412 15.425 0 28.771 8.558 34.683 18.303 -0.006-2.514-0.113-4.594 0.794-7.178 0 0 0.105 3.705 0.105 6.592l0.396 0.037c0.62-3.301 1.928-6.115 4.088-8.773 -1.918 5.158-1.188 2.404-3.334 8.702l0.348 0.187c1.431-1.839 2.603-3.139 6.019-4.862 -2.468 2.473-4.355 3.89-5.522 5.639l0.301 0.259c1.456-1.32 2.971-1.82 4.512-0.613 -2.481-0.902-3.946 0.679-5.648 2.675 6.619 1.091 10.21 4.91 14.864 10.015 10.712 12.352 13.533 24.411 7.723 41.506 2.435 5.263 2.06 17.125-3.375 26.686C159.779 86.867 155.941 93.789 152.983 98.604z" fill="#2a232b" stroke-width="none" opacity="1"/>
            <path id="SvgjsPath4714" d="M62.299 30.371c0.359 0.334 0.718 0.668 1.074 1.004 -0.129-0.085-0.258-0.164-0.388-0.253 -14.414 27.947-8.01 13.957-16.627 65.764 -5.004-6.67-6.458-10.912-7.642-17.267 -0.313-2.027-0.619-5.154-0.429-7.215l-0.063-0.065c-4.452-9.77-6.553-15.333-5.495-34.712 0.785-8.04 2.533-14.076 7.574-20.398 -0.654-3.378-0.72-6.782-0.293-10.044 0.597 0.874 1.223 1.725 1.863 2.565C42.304 12.374 42.669 14.933 42 17c-9.539 29.478-4 43 2 64 -2.464-15.931-7.142-36.185 5.619-48C44.168 46.096 45.673 52.034 47 61 47.917 49.082 52.195 37.996 62.299 30.371zM155.432 13.06c-0.376-0.412-0.742-0.812-1.106-1.207 -0.382 0.255-0.774 0.489-1.159 0.737 14.956 30.661 0.594 27.717 4.017 41.409C161.183 63.999 156 70 156 80c0-15-0.681-25.439-8.96-37.175 -2.796-3.963-3.581-17.423-5.465-24.074C118.373 33 84.002 35.981 47.916 7.183c17 6 51.649 1.35 63.543-6.316 -13.558 2.461-41.862 2.608-54.59-2.631 30.5-2.37 30.131-12.16 56.131-14C100.5-20.431 73.196-8.51 60.658-8.51c-5.336 0-10.447-1.188-14.101-3.27 0.457 5.63 2.258 9.333 4.927 13.515 -0.551 0-0.11 0.057-1.944-0.328 -1.658-2.022-2.14-2.325-2.71-3.626 -0.029 1.187 0.154 1.801 0.353 3.125 -0.347-0.093-1.433-0.387-1.66-0.442 -0.67-2.175-0.906-3.687-1.203-5.925 -0.656 1.004-1.683 2.928-2.387 4.865 -3.078-0.971-3.382-1.134-7.07-3.957 0.708 1.775 2.525 6.744 5.165 11.57 -0.007 0.055-0.009 0.111-0.016 0.166 6.305 9.235 15.169 16.471 23.363 24.192 4.454 2.924 8.558 3.096 13.729 1.382 7.374 4.286 13.727 4.517 23.953 4.441 11.332-0.088 24.177-0.188 35.496-7.471l0.271 0.284c-1.597 2.238-5.246 6.275-8.546 8.595 3.055-0.852 5.274-2.428 7.859-5.5l0.332 0.218c-0.63 1.262-1.326 2.932-1.753 4.023 0.751-0.94 1.883-2.408 2.745-3.76l0.368 0.124c-0.646 7.868 2.886 12.514 6.95 19.276 8.922 14.109 3.643 33.181 8.205 45.615 2.958-4.815 6.796-11.736 6.796-17.352 5.435-9.561 5.81-21.423 3.375-26.686C168.965 37.471 166.144 25.412 155.432 13.06zM156.165 38.709c-0.33-9.524-6.633-21.612-6.633-21.612 -2.946-5.204-5.579-7.687-9.996-8.695 12.426 0.619 17.306 19.179 16.769 28.875C156.254 38.177 156.165 38.709 156.165 38.709zM127.907-1.507c3.283 2.663 4.067 3.423 7.296 7.909 -16.653-29.889-49.333-7.27-59.667-8C86.041 0.573 109.793-14.79 127.907-1.507zM136.369 11.485C116.408 28.033 85.929 21.023 61 13.21 85.827 24.581 117.435 30.734 136.369 11.485zM57.869 29.485c-6.539 3.425-9.616 12.05-9.9 17.75C49.19 42.316 52.854 33.291 57.869 29.485zM49.619 24.735c-9.359 5.699-11.174 18.771-10.25 29.75C40.353 44.343 42.181 31.11 49.619 24.735zM117.064 12.34c-1.006 0.215-7.259 1.072-10.672 1.195 -2.661 0.155-13.037 0.328-22.391-0.048 9.655 2.069 15.454 2.454 22.496 2.045 8.106-0.293 15.36-1.898 21.371-6.796C123.633 11.067 121.828 11.399 117.064 12.34zM150.609 38.885c0 0-0.256-0.441-0.588-1.102 -0.911-1.527-1.945-5.681-5.938-18.736 2.966 24.195 7.817 19.782 9.991 32.283C154.075 46.834 153.761 44.529 150.609 38.885z" fill="#1b141c" stroke-width="none" opacity="1"/>
            <path id="SvgjsPath4715" d="M157.853 68.131c0.364-3.246 0.217-1.758 0.257-3.61 0.306-6.244-3.426-11.479-1.154-18.987 1.854-5.453 2.925-6.308 2.113-15.801 -0.119-1.37-0.474-4.774-1.102-5.998 0.856 1.489 1.422 4.245 1.725 5.934 1.687 9.543 0.268 10.992-1.521 16.267C155.781 53.906 160.368 57.422 157.853 68.131zM141.575 18.751c1.117 30.37 7.276 23.316 12.717 41.752C150.598 38.757 147.181 56.786 141.575 18.751zM48.369 34.235c-9.19 11.563-8.262 19.899-6 37C42.165 53.925 40.055 47.355 48.369 34.235zM41.772 17.714c-5.274 16.319-6.429 23.684-3.897 41.285C37.406 41.353 37.518 37.458 41.772 17.714zM61.952 30.641C52.322 37.56 47.295 50.217 47 61 48.482 50.695 54.012 37.697 61.952 30.641zM128.855 24.594c-12.051 4.437-31.667 5.625-45.988 1.322C71.706 22.661 54.279 11.723 44.905 4.845c8.498 6.765 23.471 16.807 33.926 20.776 10.863 4.059 27.887 5.567 41.081 2.245 9.248-2.324 14.041-4.52 21.663-9.114C138.182 20.612 133.184 23.242 128.855 24.594zM102.813-11.594c12.167-2.285 26.509 5.558 34.057 14.83 -7.897-11.318-20.837-16.949-28.562-17.083C95.629-14.067 82.513-3.204 56.869-2.265 80.982-1.203 92.573-9.936 102.813-11.594zM112.369 1.235c-17.289 6.143-30.64 7.613-48.807 8.58C82.325 10.97 95.739 9.15 112.369 1.235zM130.536 4.738c-10.662 5.027-15.33 5.851-37.337 7.191C106.996 12.486 119.885 11.769 130.536 4.738zM95.248 20.023c10.644 1.237 29.289-0.105 38.621-9.788 -11.27 9.494-32.119 9.154-48.38 8.508C91.713 19.714 90.59 19.552 95.248 20.023zM140.869 10.735c7.629 2.809 9.489 16.193 12.5 27C152.022 28.156 149.721 12.813 140.869 10.735z" fill="#3a353a" stroke-width="none" opacity="1"/>
            <path id="SvgjsPath4716" d="M155.579 12.925c-4.348-4.769-8.252-8.97-14.63-10.02 2.094-2.463 3.566-3.379 6.25-1.85 -1.59-1.871-3.417-2.226-5.63-0.22 1.271-1.905 3.468-3.46 6.3-6.43 -4.231 1.985-5.503 3.34-7.12 5.42 2.285-6.703 1.3-3.128 3.72-9.75 -2.529 2.836-4.146 5.92-4.859 9.72 0-5.903-0.185-5.14-0.07-7.72 -1.387 3.089-1.229 5.81-1.229 7.59 -2.233-3.682-5.514-6.8-9.051-9.35 -25.054-18.289-50.039-1.456-63.58 0.58 -5.489 0.927-13.714 0.338-19.35-3.04 0.398 5.764 2.183 9.592 4.79 13.68 -0.001 0-1.47-0.31-1.47-0.31 -2.019-2.434-2.214-2.356-2.96-4.33 -0.191 1.763 0.101 2.74 0.25 3.74 -0.498-0.13-0.957-0.268-1.26-0.34 -0.743-2.414-0.958-4.25-1.23-6.29 -0.614 0.785-1.922 3.18-2.64 5.15 -2.999-0.948-3.214-1.099-7.43-4.33 0.5 1 2.309 6.461 5.44 12.23 -0.47 3.534-0.328 7.06 0.27 10.12 -5.025 6.312-6.77 12.346-7.56 20.44 -1.041 19.059 0.867 24.611 5.53 34.82 0.01 0.01 0.01 0.03 0.02 0.04 -0.177 1.971 0.119 5.102 0.44 7.18 1.179 6.332 2.625 10.693 7.91 17.65 0.02 0.02 0.03 0.05 0.05 0.07 3.395-20.368 3.045-20.867 3.77-25.89 3.572-25.712 3.417-21.872 12.81-40.07 3.813 2.628 8.035 3.552 14.02 1.56 4.342 2.524 8.776 4.45 21.06 4.45 12.171-0.152 26.176 0.412 38.52-7.53 -1.87 2.622-6.118 7.154-9.46 9.18 3.479-0.736 5.975-2.137 9.09-5.84 -0.957 1.915-2.083 4.814-2.17 5.16 0.15-0.18 2.15-2.57 3.51-4.7 -0.653 7.945 2.894 12.597 6.98 19.4 8.956 14.163 3.511 33.521 8.33 45.96 3.09-4.996 7.04-12.086 7.04-17.75 5.21-9.086 5.956-21.111 3.39-26.75C168.587 38.924 167.533 26.708 155.579 12.925zM46.789-2.465c0.488 1.389 0.595 1.359 2.49 3.61 -0.94-0.195-1.565-0.332-2.13-0.46C46.93-0.371 46.789-1.375 46.789-2.465zM44.279-5.125c0.094 1.532 0.459 3.542 0.99 5.31 -2.865-0.737-1.8-0.504-2.8-0.8C43.292-3.089 43.602-3.715 44.279-5.125zM45.999 95.095c-4.216-7.605-5.323-10.191-6.49-17.89 -0.114-0.886-0.472-3.446-0.49-4.67 -6.07-13.88-8.352-40.236 1.21-54.74 0-0.01 0-0.01 0-0.01s0.399-0.624 1.12-1.52c-0.267-1.344-0.531-4.18-0.44-7.28 0.74 1.32 1.58 2.52 2.33 3.67 0-0.003 0.59 0.781 0.59 0.8 4.551 5.79 8.754 10.604 18.92 17.75C50.544 50.979 51.301 44.3 45.999 95.095zM163.639 48.206c-0.356 2.358-1.123 5.583-1.539 6.99 2.78 7.068-0.257 20.417-3.061 26.38 -1.226 7.093-2.545 8.521-6.01 15.59 -2.477-11 2.583-30.519-6.76-45.08 -6.059-10.044-8.657-11.36-7.23-23.77 0 0 0.061-0.675 0.08-0.85 -12.628 7.721-26.576 8.594-44.97 8.2 -5.317 0-12.5-0.668-16.98-3.44 -9.081 2.583-12.45-1.437-20.01-7.34 -8.163-6.937-13.709-12.994-20.55-27.27 3.843 3.118 11.537 4.689 16.39 5.5 -3.273-4.363-5.199-8.349-6.07-14 3.48 2.32 11.82 4.603 19.17 3.79 13.534-1.271 32.484-15.167 55.77-4.63 10.804 4.767 16.286 11.476 17.57 15 0.01 0 0.02 0.01 0.04 0.01 0.06 0.02 0.12 0.03 0.189 0.04 0.017 0.018 0.332 0.09 0.36 0.09 6.976 2.325 7.443 2.759 14.2 10.64C158.026 18.715 167.168 28.016 163.639 48.206z" fill="#000000" stroke-width="none" opacity="1"/>
          </g>
          <g id="svga-group-glasses-single-move" transform="matrix(1,0,0,1,0,0)">
            <g id="svga-group-glasses-single" transform="matrix(1,0,0,1,0,0)">
              <path id="SvgjsPath3030" d="M100,18.13L100,18.13L100,18.13L100,18.13z" fill="#26120b" stroke-width="none" opacity="1"/>
            </g>
          </g>
        </g>
      </g>
    </g>
  </g>
</svg>
